<?xml version="1.0" encoding="utf-8"?>
<!-- Generator: Adobe Illustrator 21.0.2, SVG Export Plug-In . SVG Version: 6.00 Build 0)  -->
<svg version="1.1" id="Ebene_1" xmlns="http://www.w3.org/2000/svg" xmlns:xlink="http://www.w3.org/1999/xlink" x="0px" y="0px"
	 width="114px" height="79px" viewBox="0 0 114 79" enable-background="new 0 0 114 79" xml:space="preserve">
<g>
	<path fill="#FFFFFF" d="M100,26h-4.8C93,26,93,32,93,32s0.6,3.4,3,4l10,2c0,0-5.5-5.8,0-12c1.1-1.2-1-2.1-2.3-2
		C102.2,24.1,100.9,26.4,100,26z"/>
</g>
<g>
	<path fill="#FFFFFF" d="M37,74h17c1.1,0,2-0.9,2-2v-2c0-1.1-0.9-2-2-2H37c-1.1,0-2,0.9-2,2v2C35,73.1,35.9,74,37,74z"/>
</g>
<g>
	<path fill="#FFFFFF" d="M62,74h17c1.1,0,2-0.9,2-2v-2c0-1.1-0.9-2-2-2H62c-1.1,0-2,0.9-2,2v2C60,73.1,60.9,74,62,74z"/>
</g>
<g>
	<path fill="#FFFFFF" d="M59,60h-2H40l1,8h11l2.2-2.6c2-2.3,5.5-2.3,7.5,0L64,68h11l1-8H59z"/>
</g>
<g>
	<g>
		<g>
			<path fill="#797D80" d="M103,38c-0.1,0-0.1,0-0.2,0l-5-1c-0.5-0.1-0.9-0.6-0.8-1.2c0.1-0.5,0.6-0.9,1.2-0.8l5,1
				c0.5,0.1,0.9,0.6,0.8,1.2C103.9,37.7,103.5,38,103,38z"/>
		</g>
		<g>
			<polyline fill="#FFFFFF" points="103,12 103,35 103,38 103,47 104,52 107,52 108,47 108,38 108,35 108,12 			"/>
			<path fill="#797D80" d="M107,53h-3c-0.5,0-0.9-0.3-1-0.8l-1-5c0-0.1,0-0.1,0-0.2V12c0-0.6,0.4-1,1-1s1,0.4,1,1v34.9l0.8,4.1h1.4
				l0.8-4.1V12c0-0.6,0.4-1,1-1s1,0.4,1,1v35c0,0.1,0,0.1,0,0.2l-1,5C107.9,52.7,107.5,53,107,53z"/>
		</g>
		<g opacity="0.5">
			<path fill="#797D80" d="M107,26c-0.6,0-1-0.4-1-1V12c0-0.6,0.4-1,1-1s1,0.4,1,1v13C108,25.6,107.6,26,107,26z"/>
		</g>
		<g opacity="0.5">
			<polyline fill="#FFFFFF" points="106,52 107,47 107,39 			"/>
			<path fill="#797D80" d="M106,53c-0.1,0-0.1,0-0.2,0c-0.5-0.1-0.9-0.6-0.8-1.2l1-4.9V39c0-0.6,0.4-1,1-1s1,0.4,1,1v8
				c0,0.1,0,0.1,0,0.2l-1,5C106.9,52.7,106.5,53,106,53z"/>
		</g>
		<g>
			<line fill="#FFFFFF" x1="105" y1="52" x2="105.5" y2="55"/>
			<path fill="#797D80" d="M105.5,56c-0.5,0-0.9-0.3-1-0.8l-0.5-3c-0.1-0.5,0.3-1.1,0.8-1.2c0.5-0.1,1.1,0.3,1.2,0.8l0.5,3
				c0.1,0.5-0.3,1.1-0.8,1.2C105.6,56,105.6,56,105.5,56z"/>
		</g>
		<g>
			<line fill="#FFFFFF" x1="106" y1="52" x2="105.5" y2="55"/>
			<path fill="#797D80" d="M105.5,56c-0.1,0-0.1,0-0.2,0c-0.5-0.1-0.9-0.6-0.8-1.2l0.5-3c0.1-0.5,0.6-0.9,1.2-0.8
				c0.5,0.1,0.9,0.6,0.8,1.2l-0.5,3C106.4,55.7,106,56,105.5,56z"/>
		</g>
		<g>
			<polyline fill="#FFFFFF" points="108,12 107,9 104,9 103,12 			"/>
			<path fill="#797D80" d="M108,13c-0.4,0-0.8-0.3-0.9-0.7l-0.8-2.3h-1.6l-0.8,2.3c-0.2,0.5-0.7,0.8-1.3,0.6
				c-0.5-0.2-0.8-0.7-0.6-1.3l1-3c0.1-0.4,0.5-0.7,0.9-0.7h3c0.4,0,0.8,0.3,0.9,0.7l1,3c0.2,0.5-0.1,1.1-0.6,1.3
				C108.2,13,108.1,13,108,13z"/>
		</g>
		<g opacity="0.5">
			<line fill="#FFFFFF" x1="107" y1="12" x2="106" y2="9"/>
			<path fill="#797D80" d="M107,13c-0.4,0-0.8-0.3-0.9-0.7l-1-3c-0.2-0.5,0.1-1.1,0.6-1.3c0.5-0.2,1.1,0.1,1.3,0.6l1,3
				c0.2,0.5-0.1,1.1-0.6,1.3C107.2,13,107.1,13,107,13z"/>
		</g>
		<g>
			<path fill="#797D80" d="M108,48h-5c-0.6,0-1-0.4-1-1s0.4-1,1-1h5c0.6,0,1,0.4,1,1S108.6,48,108,48z"/>
		</g>
		<g>
			<line fill="#FFFFFF" x1="100" y1="12" x2="101" y2="25"/>
			<path fill="#797D80" d="M101,26c-0.5,0-1-0.4-1-0.9l-1-13c0-0.6,0.4-1,0.9-1.1c0.6,0,1,0.4,1.1,0.9l1,13
				C102,25.5,101.6,26,101,26C101.1,26,101,26,101,26z"/>
		</g>
		<g>
			<path fill="#797D80" d="M103,17h-2c-0.6,0-1-0.4-1-1s0.4-1,1-1h2c0.6,0,1,0.4,1,1S103.6,17,103,17z"/>
		</g>
		<g>
			<path fill="#797D80" d="M108,13h-8c-0.6,0-1-0.4-1-1s0.4-1,1-1h8c0.6,0,1,0.4,1,1S108.6,13,108,13z"/>
		</g>
		<g>
			<path fill="#FFFFFF" d="M109,26l-2.8-1c-4.2,0-4.2,7-4.2,7s-0.7,6,3,6c5.6,0,7-0.9,7-7C112,28.1,111.1,26.8,109,26z"/>
		</g>
		<g>
			<path fill="#797D80" d="M105,39c-1.1,0-2-0.4-2.7-1.2c-1.7-1.9-1.4-5.5-1.3-6c0.2-1.4,0.6-3.1,1.4-3.7c0.4-0.3,1.1-0.2,1.4,0.2
				c0.3,0.4,0.2,1-0.2,1.4c-0.2,0.3-0.5,1.4-0.6,2.4c-0.1,0.8-0.1,3.3,0.8,4.4c0.3,0.3,0.7,0.5,1.2,0.5c5.1,0,6-0.4,6-6
				c0-1.5-0.3-4.3-2.4-5.1c-0.5-0.2-0.8-0.8-0.6-1.3c0.2-0.5,0.8-0.8,1.3-0.6c2.3,0.9,3.6,3.4,3.6,6.9C113,37.8,111,39,105,39z
				 M103.6,29.8L103.6,29.8L103.6,29.8z M103.6,29.8L103.6,29.8L103.6,29.8z"/>
		</g>
		<g opacity="0.5">
			<path fill="#797D80" d="M107,40h-4c-0.6,0-1-0.4-1-1s0.4-1,1-1h4c0.6,0,1,0.4,1,1S107.6,40,107,40z"/>
		</g>
		<g>
			<path fill="#FFFFFF" d="M102,30c0,0,4-2.6,4-4c0-1.1-1.2-2-2-2c-2,0-3.2,2-6,2c-2.2,0-5-1.8-5,5"/>
			<path fill="#797D80" d="M93,32c-0.6,0-1-0.4-1-1c0-2.8,0.5-4.6,1.5-5.5c1.1-0.9,2.4-0.8,3.5-0.6c0.4,0,0.7,0.1,1,0.1
				c1.2,0,2.1-0.5,3-1c0.9-0.5,1.8-1,3-1c1.4,0,3,1.3,3,3c0,1.6-2.8,3.7-4.4,4.8c-0.5,0.3-1.1,0.2-1.4-0.3c-0.3-0.5-0.2-1.1,0.3-1.4
				c1.7-1.2,3.4-2.7,3.6-3.2c0-0.5-0.7-1-1-1c-0.7,0-1.3,0.3-2,0.8c-1,0.6-2.2,1.2-4,1.2c-0.4,0-0.9-0.1-1.3-0.1
				c-0.9-0.1-1.5-0.2-1.9,0.1c-0.3,0.3-0.8,1.2-0.8,4C94,31.6,93.6,32,93,32z"/>
		</g>
		<g opacity="0.25">
			<g>
				<path fill="#797D80" d="M105,39c-0.6,0-1-0.4-1-1s0.4-1,1-1c3.2,0,5-0.3,5-6c0-2.4-1.6-4-3-4c-0.6,0-1-0.4-1-1s0.4-1,1-1
					c2.7,0,5,2.7,5,6C112,37.7,109.4,39,105,39z"/>
			</g>
			<g>
				<path fill="#797D80" d="M103,31c-0.4,0-0.8-0.2-0.9-0.6c-0.2-0.5,0-1.1,0.5-1.3c1.6-0.7,3.2-1.7,3.4-2.1
					c-0.1-0.5-1.5-1.8-2.1-1.9c-0.6,0-1-0.4-1-1s0.5-1,1-1c1.4,0,4,2.4,4,4c0,1.8-2.9,3.2-4.6,3.9C103.3,31,103.1,31,103,31z"/>
			</g>
		</g>
		<g opacity="0.5">
			<g>
				<path fill="#797D80" d="M102,37l-3-1v-2.9c0-0.7,0.3-1.4,0.7-2l1.4-1.6L102,37z"/>
			</g>
		</g>
		<g opacity="0.25">
			<g>
				<path fill="#797D80" d="M100,25c-0.6,0.6-1.2,1-2,1c-0.2,0-0.4,0-0.6,0c-1.3,0-2.9-0.1-4.1,1.1C92.4,27.9,92,29.2,92,31
					c0,0.6,0.4,1,1,1s1-0.4,1-1c0-1.2,0.2-2.1,0.7-2.5c0.6-0.5,1.6-0.5,2.7-0.5c0.2,0,0.5,0,0.7,0c2.5,0,3.9-1.9,4.9-3.8
					C102,24.6,101,24.9,100,25z"/>
			</g>
		</g>
	</g>
</g>
<g>
	<path fill="#FFFFFF" d="M33,60h50c2.2,0,4-1.8,4-4V6c0-2.2-1.8-4-4-4H33c-2.2,0-4,1.8-4,4v50C29,58.2,30.8,60,33,60z"/>
</g>
<g>
	<g>
		<g opacity="0.25">
			<path fill="#797D80" d="M72,60H58v4l6,4h2l-2.1-3.5C63.5,63.8,64,63,64.8,63h6.4c0.5,0,0.9,0.3,1,0.8L73,68h2v-8H72z"/>
		</g>
		<g opacity="0.25">
			<path fill="#797D80" d="M44,60h14v4l-6,4h-2l2.1-3.5c0.4-0.7-0.1-1.5-0.9-1.5h-6.4c-0.5,0-0.9,0.3-1,0.8L43,68h-2v-8H44z"/>
		</g>
	</g>
	<g opacity="0.5">
		<g>
			<path fill="#797D80" d="M92,74.5c0,0.8-16.6,1.5-34,1.5s-34-0.7-34-1.5S40.6,73,58,73S92,73.7,92,74.5z"/>
		</g>
		<g>
			<path fill="#797D80" d="M54,76c0,0.6-11.7,1-24,1S6,76.6,6,76s11.7-2,24-2S54,75.4,54,76z"/>
		</g>
	</g>
	<g>
		<path fill="#797D80" d="M79,75H62c-1.7,0-3-1.3-3-3v-1c0-2.2,1.8-4,4-4h15c2.2,0,4,1.8,4,4v1C82,73.7,80.7,75,79,75z M63,69
			c-1.1,0-2,0.9-2,2v1c0,0.6,0.4,1,1,1h17c0.6,0,1-0.4,1-1v-1c0-1.1-0.9-2-2-2H63z"/>
	</g>
	<g opacity="0.75">
		<path fill="#797D80" d="M75,70h-8c-0.6,0-1-0.4-1-1s0.4-1,1-1h8c0.6,0,1,0.4,1,1S75.6,70,75,70z"/>
	</g>
	<g opacity="0.5">
		<path fill="#797D80" d="M78,74H63c-0.6,0-1-0.4-1-1s0.4-1,1-1h15c0.6,0,1,0.4,1,1S78.6,74,78,74z"/>
	</g>
	<g opacity="0.5">
		<path fill="#797D80" d="M53,74H38c-0.6,0-1-0.4-1-1s0.4-1,1-1h15c0.6,0,1,0.4,1,1S53.6,74,53,74z"/>
	</g>
	<g opacity="0.5">
		<path fill="#797D80" d="M75,68c-0.6,0-1-0.4-1-1v-4c0-0.6-0.4-1-1-1H43c-0.6,0-1,0.4-1,1v4c0,0.6-0.4,1-1,1s-1-0.4-1-1v-4
			c0-1.7,1.3-3,3-3h30c1.7,0,3,1.3,3,3v4C76,67.6,75.6,68,75,68z"/>
	</g>
	<g opacity="0.75">
		<path fill="#797D80" d="M49,70h-8c-0.6,0-1-0.4-1-1s0.4-1,1-1h8c0.6,0,1,0.4,1,1S49.6,70,49,70z"/>
	</g>
	<g>
		<path fill="#797D80" d="M54,75H37c-1.7,0-3-1.3-3-3v-1c0-2.2,1.8-4,4-4h15c2.2,0,4,1.8,4,4v1C57,73.7,55.7,75,54,75z M38,69
			c-1.1,0-2,0.9-2,2v1c0,0.6,0.4,1,1,1h17c0.6,0,1-0.4,1-1v-1c0-1.1-0.9-2-2-2H38z"/>
	</g>
	<g>
		<path fill="#797D80" d="M75,69H64c-0.3,0-0.5-0.1-0.7-0.3l-3.2-3.2c-1.2-1.2-3.1-1.2-4.2,0l-3.2,3.2C52.5,68.9,52.3,69,52,69H41
			c-0.5,0-0.9-0.4-1-0.9l-1-8c-0.1-0.5,0.3-1,0.9-1.1c0.5-0.1,1,0.3,1.1,0.9l0.9,7.1h9.7l2.9-2.9c1.9-2,5.1-2,7.1,0l2.9,2.9h9.7
			l0.9-7.1c0.1-0.5,0.6-0.9,1.1-0.9c0.5,0.1,0.9,0.6,0.9,1.1l-1,8C75.9,68.6,75.5,69,75,69z"/>
	</g>
</g>
<g>
	<g>
		<path fill="#797D80" d="M83,61H33c-2.8,0-5-2.2-5-5V6c0-2.8,2.2-5,5-5h50c2.8,0,5,2.2,5,5v50C88,58.8,85.8,61,83,61z M33,3
			c-1.7,0-3,1.3-3,3v50c0,1.7,1.3,3,3,3h50c1.7,0,3-1.3,3-3V6c0-1.7-1.3-3-3-3H33z"/>
	</g>
	<g opacity="0.5">
		<path fill="#797D80" d="M83,60H34c-2.8,0-5-2.2-5-5V6c0-2.8,2.2-5,5-5h49c2.8,0,5,2.2,5,5v49C88,57.8,85.8,60,83,60z M34,3
			c-1.7,0-3,1.3-3,3v49c0,1.7,1.3,3,3,3h49c1.7,0,3-1.3,3-3V6c0-1.7-1.3-3-3-3H34z"/>
	</g>
	<g opacity="0.5">
		<g>
			<path fill="#797D80" d="M81,8v6h-6V8H81 M81,6h-6c-1.1,0-2,0.9-2,2v6c0,1.1,0.9,2,2,2h6c1.1,0,2-0.9,2-2V8C83,6.9,82.1,6,81,6
				L81,6z"/>
		</g>
	</g>
	<g opacity="0.5">
		<g>
			<path fill="#797D80" d="M41,8v6h-6V8H41 M41,6h-6c-1.1,0-2,0.9-2,2v6c0,1.1,0.9,2,2,2h6c1.1,0,2-0.9,2-2V8C43,6.9,42.1,6,41,6
				L41,6z"/>
		</g>
	</g>
	<g opacity="0.5">
		<g>
			<path fill="#797D80" d="M41,48v6h-6v-6H41 M41,46h-6c-1.1,0-2,0.9-2,2v6c0,1.1,0.9,2,2,2h6c1.1,0,2-0.9,2-2v-6
				C43,46.9,42.1,46,41,46L41,46z"/>
		</g>
	</g>
	<g opacity="0.5">
		<g>
			<path fill="#797D80" d="M39,13h-2c-0.6,0-1-0.4-1-1v-2c0-0.6,0.4-1,1-1h2c0.6,0,1,0.4,1,1v2C40,12.6,39.6,13,39,13z"/>
		</g>
	</g>
	<g opacity="0.5">
		<g>
			<path fill="#797D80" d="M79,13h-2c-0.6,0-1-0.4-1-1v-2c0-0.6,0.4-1,1-1h2c0.6,0,1,0.4,1,1v2C80,12.6,79.6,13,79,13z"/>
		</g>
	</g>
	<g opacity="0.5">
		<g>
			<path fill="#797D80" d="M67,56h-3c-0.6,0-1-0.4-1-1v-3c0-0.6,0.4-1,1-1h3c0.6,0,1,0.4,1,1v3C68,55.6,67.6,56,67,56z"/>
		</g>
	</g>
	<g opacity="0.5">
		<g>
			<path fill="#797D80" d="M52,56h-3c-0.6,0-1-0.4-1-1v-3c0-0.6,0.4-1,1-1h3c0.6,0,1,0.4,1,1v3C53,55.6,52.6,56,52,56z"/>
		</g>
	</g>
	<g opacity="0.5">
		<g>
			<path fill="#797D80" d="M82,41h-3c-0.6,0-1-0.4-1-1v-8c0-0.6,0.4-1,1-1h3c0.6,0,1,0.4,1,1v8C83,40.6,82.6,41,82,41z"/>
		</g>
	</g>
	<g opacity="0.5">
		<g>
			<path fill="#797D80" d="M67,11h-1h-2c-0.6,0-1-0.4-1-1V8V7c0-0.6-0.4-1-1-1h-8c-0.6,0-1,0.4-1,1v1v2c0,0.6-0.4,1-1,1h-2h-1
				c-0.6,0-1,0.4-1,1v3c0,0.6,0.4,1,1,1h3c0.6,0,1-0.4,1-1v-1v-2c0-0.6,0.4-1,1-1h1h1h6c0.6,0,1,0.4,1,1v2v1c0,0.6,0.4,1,1,1h3
				c0.6,0,1-0.4,1-1v-3C68,11.4,67.6,11,67,11z"/>
		</g>
	</g>
	<g opacity="0.5">
		<g>
			<path fill="#797D80" d="M37,31h-3c-0.6,0-1-0.4-1-1v-8c0-0.6,0.4-1,1-1h3c0.6,0,1,0.4,1,1v8C38,30.6,37.6,31,37,31z"/>
		</g>
	</g>
	<g opacity="0.5">
		<g>
			<path fill="#797D80" d="M42,41h-8c-0.6,0-1-0.4-1-1v-3c0-0.6,0.4-1,1-1h8c0.6,0,1,0.4,1,1v3C43,40.6,42.6,41,42,41z"/>
		</g>
	</g>
	<g opacity="0.5">
		<g>
			<path fill="#797D80" d="M78,47v3c0,0.6-0.4,1-1,1h-3c-0.6,0-1,0.4-1,1v3c0,0.6,0.4,1,1,1h8c0.6,0,1-0.4,1-1v-4v-4
				c0-0.6-0.4-1-1-1h-3C78.4,46,78,46.4,78,47z"/>
		</g>
	</g>
	<g opacity="0.5">
		<g>
			<path fill="#797D80" d="M39,53h-2c-0.6,0-1-0.4-1-1v-2c0-0.6,0.4-1,1-1h2c0.6,0,1,0.4,1,1v2C40,52.6,39.6,53,39,53z"/>
		</g>
	</g>
</g>
<g opacity="0.5">
	<g>
		<path fill="#797D80" d="M82,26H79c-0.6,0-1-0.5-1-1v-2.9c0-0.6,0.5-1,1-1H82c0.6,0,1,0.5,1,1V25C83,25.6,82.5,26,82,26z"/>
	</g>
</g>
<g>
	<g>
		<path fill="#797D80" d="M62.7,36h-9.5c-1.4,0-2.4,1.3-2,2.6l0.9,3.1C53,44.3,55.3,46,58,46h0c2.7,0,5-1.8,5.8-4.3l0.9-3.1
			C65.1,37.4,64.1,36,62.7,36z"/>
	</g>
	<g>
		<path fill="#797D80" d="M53,28v-1.9c0,0,0,0,0,0H51c-1.7,0-3-1.4-3-3v-1.9c0,0,0,0,0,0H46c-1.7,0-3,1.4-3,3V28c0,1.7,1.4,3,3,3H50
			C51.6,31,53,29.7,53,28z"/>
	</g>
	<g>
		<path fill="#797D80" d="M68,23v-1.9c0,0,0,0,0,0H66c-1.7,0-3,1.4-3,3V28c0,1.7,1.4,3,3,3H70c1.7,0,3-1.4,3-3v-1.9c0,0,0,0,0,0H71
			C69.4,26,68,24.7,68,23z"/>
	</g>
</g>
<g>
	<g opacity="0.5">
		<path fill="#797D80" d="M76,21c-0.3,0-0.5-0.1-0.8-0.2l-9-4c-1-0.4-1.5-1.6-1-2.6c0.4-1,1.6-1.5,2.6-1l9,4c1,0.4,1.5,1.6,1,2.6
			C77.5,20.6,76.8,21,76,21z"/>
	</g>
	<g>
		<path fill="#797D80" d="M76.5,19c-0.2,0-0.4,0-0.6-0.1l-9-4c-0.8-0.3-1.1-1.2-0.8-2c0.3-0.8,1.2-1.1,2-0.8l9,4
			c0.8,0.3,1.1,1.2,0.8,2C77.6,18.7,77.1,19,76.5,19z"/>
	</g>
	<g opacity="0.5">
		<path fill="#797D80" d="M40,21c-0.8,0-1.5-0.4-1.8-1.2c-0.4-1,0-2.2,1-2.6l9-4c1-0.4,2.2,0,2.6,1s0,2.2-1,2.6l-9,4
			C40.5,21,40.3,21,40,21z"/>
	</g>
	<g>
		<path fill="#797D80" d="M39.5,19c-0.6,0-1.1-0.3-1.4-0.9c-0.3-0.8,0-1.6,0.8-2l9-4c0.8-0.3,1.6,0,2,0.8c0.3,0.8,0,1.6-0.8,2l-9,4
			C39.9,19,39.7,19,39.5,19z"/>
	</g>
</g>
<g>
	<g>
		
			<rect x="7.2" y="23.9" transform="matrix(0.9659 -0.2588 0.2588 0.9659 -11.1481 8.1056)" fill="#FFFFFF" width="36" height="45"/>
	</g>
	<g opacity="0.5">
		
			<rect x="7.2" y="23.9" transform="matrix(0.9659 -0.2588 0.2588 0.9659 -11.1481 8.1056)" fill="#797D80" width="36" height="45"/>
	</g>
	<g>
		<g opacity="0.5">
			<path fill="#797D80" d="M41.6,67.2c-0.5,0-0.9-0.3-1-0.8c-0.1-0.5,0.2-1.1,0.8-1.2l7.8-1.5L35.8,20.3c-0.2-0.5,0.1-1.1,0.7-1.2
				c0.5-0.2,1.1,0.1,1.2,0.7L51,63.1c0.2,0.5,0.1,1.1-0.2,1.6c-0.3,0.5-0.8,0.8-1.3,0.9l-7.8,1.5C41.7,67.2,41.6,67.2,41.6,67.2z"/>
		</g>
		<g>
			<path fill="#797D80" d="M13.6,73.8c-0.4,0-0.8-0.3-1-0.7L1,29.6C1,29.3,1,29,1.1,28.8c0.1-0.2,0.4-0.4,0.6-0.5L36.5,19
				c0.5-0.1,1.1,0.2,1.2,0.7l11.6,43.5c0.1,0.3,0,0.5-0.1,0.8c-0.1,0.2-0.4,0.4-0.6,0.5l-34.8,9.3C13.8,73.8,13.7,73.8,13.6,73.8z
				 M3.2,30l11.1,41.5l32.8-8.8L36.1,21.2L3.2,30z"/>
		</g>
		<g>
			
				<rect x="10.2" y="28.9" transform="matrix(0.9659 -0.2588 0.2588 0.9659 -11.1481 8.1056)" fill="#FFFFFF" width="30" height="35"/>
			<path fill="#797D80" d="M15.3,68.2c-0.2,0-0.3,0-0.5-0.1c-0.2-0.1-0.4-0.4-0.5-0.6L5.2,33.6c-0.1-0.5,0.2-1.1,0.7-1.2l29-7.8
				c0.5-0.1,1.1,0.2,1.2,0.7l9.1,33.8c0.1,0.3,0,0.5-0.1,0.8c-0.1,0.2-0.4,0.4-0.6,0.5l-29,7.8C15.4,68.2,15.3,68.2,15.3,68.2z
				 M7.4,34.1L16,66l27-7.2l-8.5-31.9L7.4,34.1z"/>
		</g>
		<g>
			<polygon fill="#FFFFFF" points="26.3,31.1 26.7,28.9 25.7,25 14.1,28.1 15.1,32 16.6,33.7 			"/>
			<path fill="#797D80" d="M16.6,34.7c-0.3,0-0.6-0.1-0.7-0.3l-1.5-1.7c-0.1-0.1-0.2-0.3-0.2-0.4l-1-3.9c-0.1-0.5,0.2-1.1,0.7-1.2
				l11.6-3.1c0.5-0.1,1.1,0.2,1.2,0.7l1,3.9c0,0.1,0,0.3,0,0.5l-0.4,2.2c-0.1,0.4-0.4,0.7-0.7,0.8l-9.7,2.6
				C16.8,34.7,16.7,34.7,16.6,34.7z M16,31.5l0.9,1l8.5-2.3l0.3-1.4L25,26.3l-9.7,2.6L16,31.5z M26.3,31.1L26.3,31.1L26.3,31.1z"/>
		</g>
		<g>
			
				<rect x="11.4" y="22.7" transform="matrix(0.9659 -0.2588 0.2588 0.9659 -5.7216 5.8579)" fill="#FFFFFF" width="16" height="4"/>
			<path fill="#797D80" d="M12.2,29.7c-0.2,0-0.3,0-0.5-0.1c-0.2-0.1-0.4-0.4-0.5-0.6l-1-3.9c-0.1-0.5,0.2-1.1,0.7-1.2l15.5-4.1
				c0.5-0.1,1.1,0.2,1.2,0.7l1,3.9c0.1,0.3,0,0.5-0.1,0.8c-0.1,0.2-0.4,0.4-0.6,0.5l-15.5,4.1C12.4,29.6,12.3,29.7,12.2,29.7z
				 M12.4,25.5l0.5,1.9l13.5-3.6l-0.5-1.9L12.4,25.5z"/>
		</g>
		<g>
			<line fill="#FFFFFF" x1="25.7" y1="25" x2="14.1" y2="28.1"/>
			<path fill="#797D80" d="M14.1,29.1c-0.4,0-0.8-0.3-1-0.7c-0.1-0.5,0.2-1.1,0.7-1.2l11.6-3.1c0.5-0.1,1.1,0.2,1.2,0.7
				S26.5,25.9,26,26l-11.6,3.1C14.3,29.1,14.2,29.1,14.1,29.1z"/>
		</g>
		<g opacity="0.5">
			<g>
				
					<rect x="14.2" y="26.6" transform="matrix(0.9659 -0.2588 0.2588 0.9659 -6.4451 6.1576)" fill="#797D80" width="12" height="2"/>
			</g>
		</g>
		<g opacity="0.5">
			<g>
				
					<rect x="12.6" y="24.6" transform="matrix(0.9659 -0.2588 0.2588 0.9659 -5.9627 5.9578)" fill="#797D80" width="14" height="2"/>
			</g>
		</g>
		<g opacity="0.5">
			<g>
				<polygon fill="#797D80" points="26.3,31.1 26.7,28.9 15.1,32 16.6,33.7 				"/>
			</g>
		</g>
		<g opacity="0.25">
			<g>
				
					<rect x="14.8" y="29.5" transform="matrix(0.9659 -0.2588 0.2588 0.9659 -7.0481 6.4073)" fill="#797D80" width="12" height="1"/>
			</g>
		</g>
		<g opacity="0.25">
			<g>
				
					<rect x="12.4" y="43" transform="matrix(0.9659 -0.2588 0.2588 0.9659 -10.4246 7.8059)" fill="#797D80" width="24" height="1"/>
			</g>
		</g>
		<g opacity="0.25">
			<g>
				
					<rect x="11.4" y="39.1" transform="matrix(0.9659 -0.2588 0.2588 0.9659 -9.4599 7.4063)" fill="#797D80" width="24" height="1"/>
			</g>
		</g>
		<g opacity="0.25">
			<g>
				
					<rect x="10.4" y="35.3" transform="matrix(0.9659 -0.2588 0.2588 0.9659 -8.4951 7.0067)" fill="#797D80" width="24" height="1"/>
			</g>
		</g>
		<g opacity="0.25">
			<g>
				
					<rect x="13.5" y="46.9" transform="matrix(0.9659 -0.2588 0.2588 0.9659 -11.3893 8.2055)" fill="#797D80" width="24" height="1"/>
			</g>
		</g>
		<g opacity="0.25">
			<g>
				
					<rect x="14.5" y="50.7" transform="matrix(0.9659 -0.2588 0.2588 0.9659 -12.354 8.6051)" fill="#797D80" width="24" height="1"/>
			</g>
		</g>
		<g opacity="0.25">
			<g>
				
					<rect x="15.5" y="54.6" transform="matrix(0.9659 -0.2588 0.2588 0.9659 -13.3188 9.0047)" fill="#797D80" width="24" height="1"/>
			</g>
		</g>
		<g opacity="0.25">
			<g>
				
					<rect x="16.6" y="58.4" transform="matrix(0.9659 -0.2588 0.2588 0.9659 -14.2835 9.4043)" fill="#797D80" width="24" height="1"/>
			</g>
		</g>
		<g opacity="0.5">
			<g>
				<polygon fill="#797D80" points="47.2,62.8 36.1,21.2 35.4,22.4 46,62.1 15.1,70.3 14.4,71.6 				"/>
			</g>
		</g>
	</g>
	<g>
		<path fill="#FFFFFF" d="M3.7,43.4C7.6,42.3,8,55.7,8,55.7c-3.3,0.9-4.3-4.3-5-7C2.5,46.7,1.6,43.9,3.7,43.4z"/>
		<path fill="#797D80" d="M7.3,56.8c-0.6,0-1.1-0.1-1.6-0.4c-2-1.2-2.8-4.3-3.4-6.6l-0.3-1c-0.5-1.7-1-3.7-0.2-5
			c0.3-0.6,0.9-1,1.6-1.2l0,0c0.8-0.2,1.5-0.1,2.2,0.4C8.5,44.9,9,53.9,9,55.6c0,0.5-0.3,0.9-0.7,1C7.9,56.7,7.6,56.8,7.3,56.8z
			 M4,44.3c-0.3,0.1-0.4,0.2-0.4,0.3c-0.4,0.7,0.1,2.4,0.4,3.5l0.3,1.1c0.5,1.8,1.2,4.6,2.5,5.4c0.1,0.1,0.2,0.1,0.3,0.1
			c-0.2-3.9-1.1-9.2-2.5-10.3C4.2,44.3,4.1,44.3,4,44.3L4,44.3z"/>
	</g>
	<g>
		<path fill="#FFFFFF" d="M5.4,46c5.8-1.6,9.9,10.8,3.4,12.6"/>
		<path fill="#797D80" d="M8.8,59.6c-0.4,0-0.8-0.3-1-0.7c-0.1-0.5,0.2-1.1,0.7-1.2c2.7-0.7,2.9-3.7,2.3-6c-0.7-2.7-2.8-5.2-5.2-4.6
			c-0.5,0.1-1.1-0.2-1.2-0.7c-0.1-0.5,0.2-1.1,0.7-1.2c3.6-1,6.6,2.4,7.6,6c0.9,3.5,0.1,7.4-3.7,8.5C9,59.5,8.9,59.6,8.8,59.6z"/>
	</g>
	<g opacity="0.5">
		<path fill="#FFFFFF" d="M6.5,46c5.8-1.6,10.7,11.5,4.1,13.2"/>
		<path fill="#797D80" d="M10.6,60.2c-0.4,0-0.8-0.3-1-0.7c-0.1-0.5,0.2-1.1,0.7-1.2c3.2-0.9,2.3-5.1,2.1-5.9
			c-0.8-3.1-3.2-6.1-5.7-5.4c-0.5,0.1-1.1-0.2-1.2-0.7c-0.1-0.5,0.2-1.1,0.7-1.2c3.7-1,7,2.7,8.1,6.8c1.1,4.1-0.3,7.5-3.5,8.3
			C10.8,60.2,10.7,60.2,10.6,60.2z"/>
	</g>
	<g>
		<path fill="#FFFFFF" d="M5.4,46c5.8-1.6,9.9,10.8,3.4,12.6"/>
		<path fill="#797D80" d="M8.8,59.6c-0.4,0-0.8-0.3-1-0.7c-0.1-0.5,0.2-1.1,0.7-1.2c2.7-0.7,2.9-3.7,2.3-6c-0.7-2.7-2.8-5.2-5.2-4.6
			c-0.5,0.1-1.1-0.2-1.2-0.7c-0.1-0.5,0.2-1.1,0.7-1.2c3.6-1,6.6,2.4,7.6,6c0.9,3.5,0.1,7.4-3.7,8.5C9,59.5,8.9,59.6,8.8,59.6z"/>
	</g>
	<g>
		<path fill="#FFFFFF" d="M5.4,46c5.8-1.6,9.9,10.8,3.4,12.6c-3.3,0.9-5.2-4-5.9-6.7C2.3,49.8,1.6,47,5.4,46z"/>
		<path fill="#797D80" d="M8,59.7c-3.8,0-5.6-5.7-6.1-7.5c-0.5-1.9-1.6-5.8,3.3-7.1l0,0c3.6-1,6.6,2.4,7.6,6
			c0.9,3.5,0.1,7.4-3.7,8.5C8.7,59.6,8.3,59.7,8,59.7z M5.7,47c-2.7,0.7-2.5,2.2-1.9,4.6c0.7,2.5,2.4,6.6,4.7,6
			c2.7-0.7,2.9-3.7,2.3-6C10.1,48.9,8.1,46.3,5.7,47L5.7,47z M5.4,46L5.4,46L5.4,46z"/>
	</g>
	<g opacity="0.25">
		<path fill="#797D80" d="M8.7,59.4c-3.8,0-5.2-5.2-5.9-7.6c-0.5-1.7-0.2-3.3,0.6-4.4c1-1.3,2.7-2.1,5.1-2.2l0.1,2
			c-1.8,0.1-3,0.6-3.6,1.4c-0.6,0.8-0.5,2-0.3,2.7c1.1,4.1,2.3,6.6,4.7,6l0.5,1.9C9.6,59.4,9.1,59.4,8.7,59.4z"/>
	</g>
</g>
</svg>
